<?xml version="1.0"?>
<svg width="24" height="24" xmlns="http://www.w3.org/2000/svg" xmlns:svg="http://www.w3.org/2000/svg">
 <g class="layer">
  <title>Layer 1</title>
  <path d="m8,21l0,-11.72a4,4 0 0 1 0.74,-2.32l4.26,-5.96l0.55,0.33a3,3 0 0 1 1.35,3.36l-0.9,3.31l5.19,0a2.72,2.72 0 0 1 2.34,4.12l-0.53,0.88l0.16,0.41a4,4 0 0 1 -0.51,3.89l-0.15,0.2l0,0.5a3,3 0 0 1 -3,3l-9.5,0zm-3.5,-12a1.5,1.5 0 0 0 -1.5,1.5l0,9a1.5,1.5 0 0 0 1.5,1.5l2.5,0l0,-12l-2.5,0z" fill="white" id="svg_1" transform="rotate(180 12 11)"/>
 </g>
</svg>